# xmcd CD database file
#
# Track frame offsets:
#	150
#	14481
#	27990
#	41829
#	55325
#	67954
#	79711
#	92758
#	109698
#	121453
#	133415
#	151426
#	163317
#	177150
#	190296
#	208583
#
# Disc length: 3021 seconds
#
# Revision: 2
# Processed by: cddbd v1.4b41PL1 Copyright (c) Steve Scherf et al.
# Submitted via: Feurio! 1.50.2ß - http://www.feurio.com
#
DISCID=e40bcb10
DTITLE=Various Artist - Country Jewels 2 - CD3
DYEAR=1900
DGENRE=
TTITLE0=Ericson/Oban/Reiniz - Cotton Eye Joe
TTITLE1=Stock/Waterman/Dallin/Woodward - Last thing on my mind
TTITLE2=Chesnut - Four the morning
TTITLE3=Denver - Annie's Song
TTITLE4=Wayne/Kemp - Leveburg
TTITLE5=Roe - Dizzy
TTITLE6=Tilles - Ruby, don't take your love to town
TTITLE7=Stuart/Kostas - You can't stop love
TTITLE8=Carter/Kilgore - Ring of Fire
TTITLE9=Nelson - Crazy
TTITLE10=Gill/Mc Clinton - South Side Of Dixie
TTITLE11=Parton - Jolene
TTITLE12=Ramos/Akins - I Brake For Brunettes
TTITLE13=Parks - Something Stupid
TTITLE14=Twain/Lange - Any Man of Mine
TTITLE15=Norris/Ball - Swamp Thing
EXTD=
EXTT0=
EXTT1=
EXTT2=
EXTT3=
EXTT4=
EXTT5=
EXTT6=
EXTT7=
EXTT8=
EXTT9=
EXTT10=
EXTT11=
EXTT12=
EXTT13=
EXTT14=
EXTT15=
PLAYORDER=
